<?xml version="1.0" standalone="no"?>
<!DOCTYPE svg PUBLIC "-//W3C//DTD SVG 20010904//EN"
 "http://www.w3.org/TR/2001/REC-SVG-20010904/DTD/svg10.dtd">
<svg version="1.0" xmlns="http://www.w3.org/2000/svg"
 width="800.000000pt" height="800.000000pt" viewBox="0 0 800.000000 800.000000"
 preserveAspectRatio="xMidYMid meet">
<metadata>
Created by potrace 1.14, written by Peter Selinger 2001-2017
</metadata>
<g transform="translate(0.000000,800.000000) scale(0.100000,-0.100000)"
fill="#000000" stroke="none">
<path d="M1655 7993 c-245 -53 -443 -226 -505 -443 -7 -25 -16 -58 -21 -73 -4
-15 -9 -480 -9 -1032 0 -790 2 -1004 12 -1007 7 -3 29 -1 50 2 21 4 40 5 43 2
7 -7 133 -4 145 3 5 3 11 2 14 -3 5 -8 79 -7 101 2 6 2 17 1 24 -3 7 -5 30 -5
51 -1 21 4 44 4 50 0 6 -4 29 -4 51 0 22 4 41 4 43 1 5 -7 81 -5 101 3 6 2 17
1 24 -3 7 -5 30 -5 51 -1 21 4 44 4 50 0 6 -4 29 -4 51 0 22 4 41 4 43 1 5 -7
81 -5 101 3 6 2 17 1 24 -3 7 -5 30 -5 51 -1 21 4 44 4 50 0 6 -4 29 -4 51 0
22 4 41 5 43 1 3 -4 19 -5 38 -4 45 2 80 3 98 2 8 0 48 1 87 2 40 1 75 0 77
-2 3 -3 35 -2 71 1 37 3 68 3 70 -1 3 -3 25 -3 50 1 25 4 45 4 45 1 0 -3 33
-5 72 -4 172 4 279 21 328 52 13 9 26 15 27 13 11 -11 126 70 188 132 54 54
82 93 114 157 22 46 43 95 45 109 3 14 5 25 6 25 3 0 11 43 15 85 5 54 7 230
4 335 -1 51 -1 83 0 118 1 15 1 39 2 55 0 15 1 51 2 80 1 28 0 52 -3 52 -3 0
-3 32 0 70 3 39 3 70 0 70 -6 0 -2 140 4 157 3 7 1 13 -5 13 -6 0 -7 4 -4 10
3 5 6 47 6 92 -1 46 -1 110 -1 143 0 33 0 78 -1 100 -1 51 -1 83 0 118 1 15 1
39 2 55 0 15 1 51 2 80 1 28 0 52 -3 52 -3 0 -3 32 0 70 3 39 3 70 0 70 -6 0
-2 140 4 157 3 7 2 13 -3 13 -5 0 -5 18 -1 40 l7 40 -1006 -1 c-553 -1 -1015
-3 -1026 -6z"/>
<path d="M3838 7989 c-3 -8 -1 -26 3 -41 4 -15 4 -30 -1 -33 -5 -3 -5 -19 0
-35 5 -16 5 -32 0 -35 -5 -3 -5 -19 0 -35 5 -17 5 -32 0 -35 -6 -3 -5 -16 0
-29 5 -13 7 -26 4 -29 -9 -9 -13 -47 -4 -47 5 0 5 -13 0 -30 -5 -17 -5 -30 0
-30 5 0 5 -13 0 -30 -5 -17 -5 -30 0 -30 5 0 5 -13 0 -30 -5 -16 -5 -30 0 -30
4 0 5 -15 1 -32 -4 -18 -4 -48 0 -65 3 -18 3 -33 -2 -33 -4 0 -4 -13 1 -30 5
-17 5 -32 0 -35 -6 -3 -5 -16 0 -29 5 -13 7 -26 4 -29 -9 -9 -13 -47 -4 -47 5
0 5 -13 0 -30 -5 -17 -5 -30 0 -30 5 0 5 -13 0 -30 -5 -17 -5 -30 0 -30 5 0 5
-13 0 -30 -5 -16 -5 -30 0 -30 4 0 5 -15 1 -32 -4 -18 -4 -48 0 -65 3 -18 3
-33 -2 -33 -4 0 -4 -13 1 -30 5 -17 5 -32 0 -35 -6 -3 -5 -16 0 -29 5 -13 7
-26 4 -29 -9 -9 -13 -47 -4 -47 5 0 5 -13 0 -29 -4 -15 -4 -34 0 -42 5 -7 5
-20 0 -29 -5 -9 -5 -22 0 -30 5 -8 5 -21 0 -30 -5 -9 -5 -22 0 -30 4 -7 4 -24
0 -36 -6 -14 -5 -26 0 -29 5 -3 5 -18 0 -35 -5 -17 -5 -30 0 -30 4 0 5 -15 1
-32 -4 -18 -4 -48 0 -65 3 -18 3 -33 -1 -33 -8 0 -6 -37 2 -46 3 -3 2 -19 -2
-35 -5 -16 -5 -29 0 -29 4 0 4 -16 0 -34 -4 -19 -6 -36 -4 -38 3 -3 10 -55 19
-138 2 -14 4 -25 5 -25 1 0 3 -7 5 -16 5 -26 71 -162 91 -188 56 -70 116 -127
176 -167 37 -24 69 -44 72 -44 3 0 17 -5 33 -12 15 -6 31 -12 36 -13 4 -2 8
-3 10 -5 1 -1 9 -3 17 -5 8 -2 29 -6 45 -10 17 -4 51 -7 77 -8 27 -1 48 -5 48
-8 0 -3 20 -3 45 1 25 4 45 4 45 1 0 -3 32 -4 71 -1 39 3 72 4 74 2 5 -6 315
-5 321 0 2 3 21 2 42 -2 20 -3 54 -3 74 1 21 3 40 4 42 2 6 -6 316 -6 322 0 2
2 21 1 42 -2 20 -4 54 -4 74 -1 21 4 40 5 42 2 6 -5 316 -5 322 1 2 2 21 1 42
-2 20 -4 54 -4 74 -1 21 4 40 5 42 2 6 -5 316 -5 322 0 2 3 21 2 42 -1 20 -4
56 -4 80 0 23 3 42 3 42 0 0 -3 24 -5 52 -4 106 4 153 5 163 3 35 -8 37 -2 30
128 -7 137 -8 152 -19 227 -8 51 -10 61 -26 150 -10 56 -59 245 -66 257 -3 4
-7 16 -9 25 -3 19 -40 123 -55 158 -51 118 -92 209 -111 241 -12 21 -36 64
-52 94 -49 89 -144 226 -232 334 -256 317 -587 567 -975 739 -73 32 -215 83
-216 77 0 -3 -7 0 -15 7 -14 11 -229 67 -300 77 -20 3 -42 7 -50 10 -8 3 -39
8 -69 11 -30 4 -66 9 -80 11 -14 3 -190 8 -391 11 -304 4 -367 3 -371 -8z"/>
<path d="M1145 5277 c-3 -6 -4 -583 -2 -1282 l2 -1270 33 -2 c69 -5 140 -5
149 0 5 3 15 2 23 -3 7 -4 24 -4 36 0 13 5 26 5 29 1 3 -5 20 -5 39 -1 18 4
40 4 48 -1 7 -4 20 -4 28 1 7 4 24 4 36 0 14 -6 26 -5 29 0 3 5 18 5 35 0 18
-5 32 -5 36 1 3 5 10 7 15 3 13 -8 113 -9 126 -1 5 3 15 2 23 -3 7 -4 24 -4
36 0 13 5 26 5 29 1 3 -5 20 -5 39 -1 19 4 40 4 47 -1 7 -4 20 -4 29 1 9 5 22
5 30 0 7 -4 24 -4 36 0 14 6 26 5 29 0 3 -5 18 -5 34 0 16 4 32 6 35 3 7 -7
101 -7 112 0 6 3 16 2 24 -3 7 -4 24 -4 36 0 13 5 26 5 29 1 3 -5 20 -5 39 -1
18 4 40 4 48 -1 7 -4 20 -4 28 1 7 4 24 4 36 0 14 -6 26 -5 29 0 3 5 18 5 35
0 18 -5 32 -5 36 1 3 5 10 7 15 3 13 -7 117 -9 125 -2 3 4 18 2 34 -2 16 -4
31 -6 34 -3 7 8 105 7 113 -1 3 -3 13 -1 22 4 10 5 23 5 31 0 7 -4 24 -4 36 0
14 6 26 5 29 0 3 -5 18 -5 34 0 16 4 32 6 35 3 7 -7 101 -7 112 0 6 3 16 2 24
-3 7 -4 24 -4 36 0 13 5 26 5 29 1 3 -5 20 -5 39 -1 19 4 40 4 47 -1 7 -4 20
-4 28 1 8 4 25 4 38 -1 13 -5 25 -4 28 2 4 6 13 6 23 0 9 -5 26 -5 37 -1 12 5
27 5 33 1 6 -3 29 -5 52 -3 l40 4 0 52 c3 511 -2 1930 -6 1956 -9 61 -25 114
-46 160 -11 25 -19 45 -17 45 12 0 -94 135 -138 175 -49 45 -150 111 -164 107
-3 -1 -12 3 -20 9 -41 33 -263 70 -310 52 -9 -3 -22 -2 -29 2 -7 5 -24 4 -36
0 -14 -6 -26 -5 -29 0 -3 5 -16 6 -28 1 -12 -4 -33 -5 -47 -1 -14 4 -37 3 -52
-1 -14 -4 -29 -4 -32 -1 -9 9 -46 10 -46 1 0 -4 -16 -3 -35 1 -19 4 -37 4 -40
0 -3 -5 -18 -5 -33 -1 -15 4 -39 5 -53 1 -15 -4 -33 -4 -40 0 -7 5 -20 5 -29
0 -9 -5 -22 -5 -30 0 -7 4 -24 4 -36 0 -14 -6 -26 -5 -29 0 -3 5 -18 5 -33 1
-15 -5 -36 -5 -46 -1 -11 3 -38 3 -62 0 -24 -4 -49 -3 -56 1 -6 4 -19 4 -28
-1 -9 -5 -22 -5 -30 0 -7 4 -24 4 -36 0 -14 -6 -26 -5 -29 0 -3 5 -18 5 -33 1
-15 -5 -36 -5 -46 -1 -11 3 -38 3 -62 0 -24 -4 -49 -3 -56 1 -6 4 -19 4 -28
-1 -9 -5 -22 -5 -30 0 -7 4 -24 4 -36 0 -14 -6 -26 -5 -29 0 -3 5 -18 5 -33 1
-15 -5 -36 -5 -46 -1 -11 3 -38 3 -62 0 -24 -4 -49 -3 -56 1 -6 4 -19 4 -28
-1 -9 -5 -22 -5 -30 0 -7 4 -24 4 -36 0 -14 -6 -26 -5 -29 0 -3 5 -18 5 -33 1
-15 -5 -36 -5 -47 -1 -11 4 -29 4 -40 0 -11 -4 -29 -4 -40 0 -11 4 -29 4 -40
0 -11 -4 -30 -4 -43 1 -16 6 -24 5 -27 -4z"/>
<path d="M4477 5284 c-2 -2 -29 -6 -59 -8 -140 -11 -279 -77 -385 -182 -62
-62 -133 -162 -132 -187 0 -4 -6 -18 -14 -30 -25 -39 -44 -141 -50 -270 -1
-20 1 -37 5 -37 4 0 3 -13 -2 -30 -5 -17 -5 -30 0 -30 5 0 5 -13 0 -30 -5 -17
-5 -30 0 -30 5 0 5 -13 0 -30 -5 -17 -5 -30 0 -30 5 0 5 -13 0 -30 -5 -17 -5
-30 0 -30 5 0 5 -13 0 -30 -5 -17 -5 -30 0 -30 5 0 7 -6 5 -12 -9 -22 -11
-108 -4 -108 4 0 4 -13 -1 -29 -4 -15 -4 -34 0 -42 5 -7 5 -20 0 -29 -5 -9 -5
-22 0 -30 5 -8 5 -21 0 -30 -5 -9 -5 -22 0 -30 5 -8 5 -21 0 -30 -5 -9 -5 -22
0 -30 5 -8 5 -21 0 -30 -5 -9 -5 -22 0 -30 5 -8 5 -21 0 -30 -5 -9 -5 -22 0
-30 4 -7 4 -24 0 -36 -6 -14 -5 -26 0 -29 6 -4 7 -13 1 -24 -6 -10 -6 -23 -1
-31 5 -8 5 -21 0 -30 -5 -9 -5 -22 0 -30 5 -8 5 -21 0 -30 -5 -9 -5 -22 0 -30
5 -8 5 -21 0 -30 -5 -9 -5 -22 0 -30 5 -8 5 -21 0 -30 -5 -9 -5 -22 0 -30 5
-8 5 -21 0 -30 -5 -9 -5 -22 0 -30 5 -8 5 -21 0 -30 -5 -9 -5 -22 0 -30 4 -7
4 -24 0 -36 -6 -14 -5 -26 0 -29 6 -4 7 -13 1 -24 -6 -10 -6 -23 -1 -31 5 -8
5 -21 0 -30 -5 -9 -5 -22 0 -30 5 -8 5 -21 0 -30 -5 -9 -5 -22 0 -30 5 -8 5
-21 0 -30 -5 -9 -5 -22 0 -30 5 -8 5 -21 0 -30 -5 -9 -5 -22 -1 -28 4 -7 5
-35 1 -62 -4 -27 -3 -55 1 -62 4 -6 3 -22 -1 -34 -6 -14 -5 -26 1 -29 5 -4 7
-11 4 -16 -10 -15 36 -27 71 -19 18 4 38 4 45 0 7 -5 23 -4 35 0 14 6 26 5 29
0 3 -5 18 -5 34 0 16 4 32 6 34 3 9 -8 70 -9 100 -2 15 4 27 5 27 1 0 -4 19
-6 42 -5 24 1 102 4 173 7 72 3 146 8 165 11 19 3 51 7 70 9 107 14 258 46
365 78 39 11 71 20 73 19 1 -1 16 6 32 14 17 9 30 13 30 11 0 -3 26 5 58 18
81 34 96 39 105 38 4 -1 7 2 7 8 0 5 4 10 9 10 6 0 43 16 83 35 298 140 573
350 812 616 49 55 214 275 241 320 10 19 30 52 43 74 59 98 187 365 175 365
-3 0 -1 6 4 13 17 22 94 263 107 337 2 14 9 48 16 75 6 28 13 64 15 80 3 33
15 119 21 150 2 11 7 77 10 148 4 89 3 127 -5 128 -42 3 -82 1 -87 -4 -3 -3
-16 -2 -28 2 -11 5 -30 5 -41 1 -11 -4 -31 -4 -45 0 -14 4 -37 3 -52 -1 -16
-4 -30 -3 -33 1 -3 5 -16 5 -29 0 -12 -4 -29 -4 -36 0 -8 5 -21 5 -31 0 -9 -5
-19 -7 -22 -3 -8 7 -102 8 -114 0 -5 -3 -15 -2 -23 3 -7 4 -24 4 -36 0 -13 -5
-26 -5 -29 -1 -3 5 -20 5 -39 1 -18 -4 -40 -4 -48 1 -7 4 -20 4 -28 -1 -7 -4
-24 -4 -36 0 -14 6 -26 5 -29 0 -3 -5 -18 -5 -35 0 -18 5 -32 5 -36 -1 -3 -5
-10 -7 -15 -3 -13 8 -113 9 -126 1 -5 -3 -15 -2 -23 3 -7 4 -24 4 -36 0 -14
-6 -26 -5 -29 0 -3 5 -16 6 -28 1 -12 -4 -33 -5 -47 -1 -14 4 -37 3 -52 -1
-15 -4 -30 -4 -33 1 -3 5 -15 6 -29 0 -12 -4 -29 -4 -36 0 -8 5 -21 5 -31 0
-9 -5 -19 -7 -22 -3 -8 7 -102 8 -114 0 -5 -3 -15 -2 -23 3 -7 4 -24 4 -36 0
-13 -5 -26 -5 -29 -1 -3 5 -20 5 -39 1 -18 -4 -40 -4 -48 1 -7 4 -20 4 -28 -1
-7 -4 -24 -4 -36 0 -14 6 -26 5 -29 0 -3 -5 -18 -5 -35 0 -18 5 -32 5 -36 -1
-3 -5 -10 -7 -15 -3 -13 8 -113 9 -126 1 -5 -3 -15 -2 -23 3 -7 4 -24 4 -36 0
-14 -6 -26 -5 -29 0 -3 5 -16 6 -28 1 -12 -4 -33 -5 -47 -1 -14 4 -37 3 -52
-1 -14 -4 -29 -4 -32 -1 -9 9 -46 10 -46 1 0 -4 -16 -3 -35 1 -19 4 -37 4 -40
0 -3 -5 -18 -5 -34 0 -16 4 -31 6 -34 4z"/>
<path d="M1215 2562 c-2 -2 -18 -4 -37 -5 l-33 -2 0 -1015 0 -1015 24 -75 c13
-41 28 -79 32 -85 4 -5 16 -26 27 -47 28 -50 47 -73 115 -140 78 -77 157 -120
302 -166 11 -4 351 -8 755 -9 632 -2 744 0 800 13 60 14 179 60 190 74 3 4 25
20 50 37 44 30 123 109 147 148 54 85 94 187 107 275 7 40 9 2000 3 2007 -4 4
-124 6 -142 3 -5 -1 -14 -2 -18 -1 -7 1 -147 1 -227 0 -8 0 -54 1 -102 2 -47
0 -91 -2 -97 -5 -5 -4 -12 -3 -14 2 -3 4 -20 6 -39 5 -42 -2 -79 -3 -98 -3 -8
1 -40 1 -70 0 -30 0 -74 1 -98 2 -23 2 -42 0 -42 -3 0 -3 -20 -3 -45 1 -25 4
-48 3 -51 -1 -2 -5 -11 -6 -18 -3 -22 9 -246 9 -246 1 0 -5 -4 -6 -9 -2 -14 8
-216 9 -229 1 -6 -3 -13 -3 -15 2 -3 4 -20 6 -39 5 -42 -2 -79 -3 -98 -3 -8 1
-57 0 -108 -1 -51 0 -96 1 -98 4 -3 2 -21 1 -40 -3 -19 -4 -36 -5 -39 0 -2 4
-25 4 -50 0 -25 -4 -45 -4 -45 -1 0 3 -46 5 -102 3 -110 -3 -174 -2 -251 1
-27 1 -50 0 -52 -1z"/>
</g>
</svg>
